<?xml version="1.0" encoding="UTF-8"?>
<svg id="Layer_12" data-name="Layer 12" xmlns="http://www.w3.org/2000/svg" viewBox="0 0 1486.03 1417.3">
  <path d="M1116.06,542.62c-44.72,43.24-120.99,67.13-181.1,79.9-137.75,29.28-307.51,26.59-442.42-15.18-65.37-20.24-179.18-71.74-155.08-158.54,22.3-80.33,162.56-119,234.3-132.42,144.23-26.99,360.89-21.15,492.79,48.34,73.54,38.74,125.29,106.58,51.51,177.91ZM1089.67,514.26c63.05-63.53-25.59-110.71-78.96-131.09-117.52-44.88-271.97-51.39-395.84-34.52-65.63,8.94-183.29,36.03-227.27,88.33-45.32,53.89,27.63,97.47,70.63,116.2,139.61,60.8,357.2,62.15,502.31,23.14,40.03-10.76,99.91-32.6,129.14-62.06Z"/>
  <path d="M771.1,828.75c14.38,12.48,24.87,23.36,32.58,41.64,24.02,56.94-10.69,98.49-31.25,149.02l-3.31,1.66-31.28-13.79-1.43-3.33,33.66-75.38c6.42-21.14.68-45.32-14.28-61.41-6.41-6.89-15.07-11.12-22.07-17.26-12.71-11.15-24.59-28.81-29.79-44.93-11.33-35.12-.68-59.78,11.06-92.7,4.29-12.04,8.42-24.2,12.32-36.36l35.94,12.72.21,4.25c-11.35,37.54-41.41,79.88-13.39,117.07,6.23,8.26,13.75,12.51,21.02,18.81Z"/>
  <path d="M482.08,424.8c36.94-29.01,94.73-41.7,140.67-48.59,89.28-13.39,191.27-12.3,279.57,7.2,45.7,10.09,153.48,42.96,123.9,109.17-22.67,50.75-136.71,72.44-186.42,78.05-27.59,3.11-55.74,4.3-83.49,5.99-17.81,1.08-40.9-.8-59.04-1.93-62.36-3.91-186.2-18.42-228.58-68.34-25-29.45-14.24-59.83,13.39-81.54ZM981.56,456.09c-46.54-36.14-155.27-47.82-213.42-49.61-70.87-2.18-172.47,4.97-237.45,33.99-9.55,4.27-37.73,19.41-37.11,31.28.54,10.44,21.74,23.23,30.31,27.56,77.49,39.16,219.88,42.47,305.15,33.04,40.56-4.48,118.15-18.25,149.97-43.72,13.81-11.06,18.04-20.52,2.56-32.54Z"/>
</svg>