<?xml version="1.0" encoding="UTF-8"?><svg id="Layer_4" xmlns="http://www.w3.org/2000/svg" viewBox="0 0 2834.6 2834.6"><defs><style>.cls-1{fill:none;stroke:#000;stroke-miterlimit:10;stroke-width:85px;}</style></defs><line class="cls-1" x1="618.6" y1="902.2" x2="618.6" y2="1335.3"/><line class="cls-1" x1="1015.7" y1="1035.1" x2="854.2" y2="1251.6"/><line class="cls-1" x1="1334.3" y1="1068.1" x2="1172.8" y2="1284.6"/><line class="cls-1" x1="1627.9" y1="1096.2" x2="1466.5" y2="1312.7"/><line class="cls-1" x1="1938.8" y1="1135.6" x2="1777.3" y2="1352.1"/><line class="cls-1" x1="2270.2" y1="1068.1" x2="2270.2" y2="1501.2"/><line class="cls-1" x1="738.4" y1="902.2" x2="2150.4" y2="1050"/><line class="cls-1" x1="738.4" y1="1335.3" x2="2150.4" y2="1483.1"/><line class="cls-1" x1="618.6" y1="1424.6" x2="618.6" y2="2153.8"/><line class="cls-1" x1="2270.2" y1="1590.5" x2="2270.2" y2="2319.6"/><line class="cls-1" x1="554.4" y1="527.8" x2="685.8" y2="529.4"/><line class="cls-1" x1="392.4" y1="643.9" x2="523.7" y2="645.6"/><line class="cls-1" x1="713.5" y1="644.8" x2="844.8" y2="646.4"/><line class="cls-1" x1="554.4" y1="769.9" x2="685.8" y2="771.5"/><line class="cls-1" x1="2206" y1="693" x2="2337.3" y2="694.7"/><line class="cls-1" x1="2044" y1="809.2" x2="2175.3" y2="810.8"/><line class="cls-1" x1="2365" y1="810" x2="2496.4" y2="811.6"/><line class="cls-1" x1="2206" y1="935.1" x2="2337.3" y2="936.8"/></svg>