<?xml version="1.0" encoding="UTF-8"?><svg xmlns="http://www.w3.org/2000/svg" viewBox="0 0 595.3 841.9"><defs><style>.cls-1,.cls-2,.cls-3{fill:none;}.cls-2{stroke:#e6e6e7;stroke-width:1.3px;}.cls-2,.cls-3{stroke-miterlimit:10;}.cls-3{stroke:#272525;stroke-width:8px;}.cls-4{fill:#4ba956;}.cls-5{fill:#f0efef;}</style></defs><g id="Layer_2"><rect class="cls-5" width="595.3" height="841.9"/></g><g id="Layer_1"><path class="cls-1" d="M225.9,442.6c-14.8,16.4-81.5,14.3-81.5,14.3,63-10,80.7-78.9,80.7-78.9-24.5-1.8-50.7,7.1-69.8,15.8-18.7,8.5-35.8,20.2-50.3,34.8-35.1,35.3-3.9,36.7-3.9,36.7,38.1-1.6,45.3-83,45.3-83,0,0,1.3-5.4-16.6,1"/><circle class="cls-4" cx="225.9" cy="442.6" r="5.5"/><circle class="cls-4" cx="163.3" cy="451.7" r="5.5"/><circle class="cls-4" cx="220.5" cy="377.8" r="5.5"/><circle class="cls-4" cx="124.1" cy="412.1" r="5.5"/><circle class="cls-4" cx="124.7" cy="451" r="5.5"/><circle class="cls-4" cx="214.8" cy="449.3" r="5.5"/><circle class="cls-4" cx="174.9" cy="446" r="5.5"/><circle class="cls-4" cx="207.6" cy="378.3" r="5.5"/><circle class="cls-4" cx="114" cy="420.2" r="5.5"/><circle class="cls-4" cx="131.4" cy="439.9" r="5.5"/><circle class="cls-4" cx="202.3" cy="452.8" r="5.5"/><circle class="cls-4" cx="185.7" cy="438.7" r="5.5"/><circle class="cls-4" cx="194.7" cy="380.4" r="5.5"/><circle class="cls-4" cx="104.5" cy="429" r="5.5"/><circle class="cls-4" cx="136.5" cy="427.9" r="5.5"/><circle class="cls-4" cx="189.5" cy="454.9" r="5.5"/><circle class="cls-4" cx="195.3" cy="429.9" r="5.5"/><circle class="cls-4" cx="182.1" cy="383.6" r="5.5"/><circle class="cls-4" cx="95.9" cy="438.8" r="5.5"/><circle class="cls-4" cx="140.3" cy="415.5" r="5.5"/><circle class="cls-4" cx="176.6" cy="456.1" r="5.5"/><circle class="cls-4" cx="203.7" cy="420.1" r="5.5"/><circle class="cls-4" cx="169.8" cy="387.7" r="5.5"/><circle class="cls-4" cx="89.3" cy="449.9" r="5.5"/><circle class="cls-4" cx="143.3" cy="402.8" r="5.5"/><circle class="cls-4" cx="163.6" cy="456.8" r="5.5"/><circle class="cls-4" cx="211.1" cy="409.4" r="5.5"/><circle class="cls-4" cx="157.8" cy="392.7" r="5.5"/><circle class="cls-4" cx="91.5" cy="461.8" r="5.5"/><circle class="cls-4" cx="145.5" cy="390" r="5.5"/><circle class="cls-4" cx="150.6" cy="457" r="5.5"/><circle class="cls-4" cx="217.3" cy="398" r="5.5"/><circle class="cls-4" cx="146.1" cy="398.3" r="5.5"/><circle class="cls-4" cx="103.7" cy="465" r="5.5"/><circle class="cls-4" cx="142.4" cy="380.1" r="5.5"/><circle class="cls-4" cx="150.8" cy="455.6" r="5.5"/><circle class="cls-4" cx="222.4" cy="386" r="5.5"/><circle class="cls-4" cx="134.8" cy="404.8" r="5.5"/><circle class="cls-4" cx="115.6" cy="460.1" r="5.5"/><circle class="cls-4" cx="129.8" cy="383.3" r="5.5"/><path class="cls-1" d="M254.5,359.2s32.6-15.2,28.9-2.5c-3,10.3-25.8,82.3-32.2,106.6s8.1,3.7,11.2,2c0,0,11.7-6.5,17-12.4"/><circle class="cls-4" cx="254.5" cy="359.2" r="5.5"/><circle class="cls-4" cx="265.3" cy="415.5" r="5.5"/><circle class="cls-4" cx="265.6" cy="354.7" r="5.5"/><circle class="cls-4" cx="261.8" cy="427" r="5.5"/><circle class="cls-4" cx="277.2" cy="351.7" r="5.5"/><circle class="cls-4" cx="258.3" cy="438.5" r="5.5"/><circle class="cls-4" cx="282.9" cy="358.3" r="5.5"/><circle class="cls-4" cx="255" cy="449.9" r="5.5"/><circle class="cls-4" cx="279.4" cy="369.8" r="5.5"/><circle class="cls-4" cx="251.7" cy="461.5" r="5.5"/><circle class="cls-4" cx="275.9" cy="381.2" r="5.5"/><circle class="cls-4" cx="259.7" cy="466.1" r="5.5"/><circle class="cls-4" cx="272.3" cy="392.7" r="5.5"/><circle class="cls-4" cx="270.1" cy="460.4" r="5.5"/><circle class="cls-4" cx="268.8" cy="404.1" r="5.5"/><circle class="cls-4" cx="279.4" cy="452.8" r="5.5"/><path class="cls-1" d="M267.8,537s-8.7,9.7-22.1,13.6-6.2-1.2-5.5-3.8l18.4-62.4h-118.3"/><circle class="cls-4" cx="267.8" cy="537" r="5.5"/><circle class="cls-4" cx="246.3" cy="550.4" r="5.5"/><circle class="cls-4" cx="140.2" cy="484.4" r="5.5"/><circle class="cls-4" cx="248.6" cy="518.3" r="5.5"/><circle class="cls-4" cx="255.8" cy="493.7" r="5.5"/><circle class="cls-4" cx="242.6" cy="484.4" r="5.5"/><circle class="cls-4" cx="217" cy="484.4" r="5.5"/><circle class="cls-4" cx="191.4" cy="484.4" r="5.5"/><circle class="cls-4" cx="165.8" cy="484.4" r="5.5"/><circle class="cls-4" cx="257.9" cy="545" r="5.5"/><circle class="cls-4" cx="241.3" cy="542.8" r="5.5"/><circle class="cls-4" cx="244.9" cy="530.6" r="5.5"/><circle class="cls-4" cx="252.2" cy="506" r="5.5"/><circle class="cls-4" cx="255.5" cy="484.4" r="5.5"/><circle class="cls-4" cx="229.8" cy="484.4" r="5.5"/><circle class="cls-4" cx="204.3" cy="484.4" r="5.5"/><circle class="cls-4" cx="178.6" cy="484.4" r="5.5"/><circle class="cls-4" cx="153" cy="484.4" r="5.5"/><circle class="cls-4" cx="474.1" cy="462.1" r="5.5"/><circle class="cls-4" cx="486.3" cy="462.1" r="5.5"/><circle class="cls-4" cx="498.5" cy="462.1" r="5.5"/><circle class="cls-4" cx="510" cy="458.6" r="5.5"/><path class="cls-1" d="M325.1,536s28.4-9.9,28.4-3.7c0,8.9-3.3,47.4-42.6,63.8,0,0,42.9-13.4,106.5-6.2,12.5,1.4,25.1-2.5,34.4-11,4.6-4.2,9.6-9.8,14.8-17.3"/><circle class="cls-4" cx="325.1" cy="536" r="5.5"/><circle class="cls-4" cx="320" cy="591.5" r="5.5"/><circle class="cls-4" cx="401.5" cy="588.4" r="5.5"/><circle class="cls-4" cx="337.3" cy="532.3" r="5.5"/><circle class="cls-4" cx="313.4" cy="595.4" r="5.5"/><circle class="cls-4" cx="414.2" cy="589.5" r="5.5"/><circle class="cls-4" cx="349.8" cy="530.2" r="5.5"/><circle class="cls-4" cx="325.7" cy="592.6" r="5.5"/><circle class="cls-4" cx="426.8" cy="589.9" r="5.5"/><circle class="cls-4" cx="353" cy="540" r="5.5"/><circle class="cls-4" cx="338.3" cy="590.5" r="5.5"/><circle class="cls-4" cx="439.1" cy="586.9" r="5.5"/><circle class="cls-4" cx="350.3" cy="552.4" r="5.5"/><circle class="cls-4" cx="350.9" cy="589.1" r="5.5"/><circle class="cls-4" cx="449.9" cy="580.5" r="5.5"/><circle class="cls-4" cx="345.6" cy="564.2" r="5.5"/><circle class="cls-4" cx="363.5" cy="588.1" r="5.5"/><circle class="cls-4" cx="458.9" cy="571.6" r="5.5"/><circle class="cls-4" cx="338.9" cy="574.9" r="5.5"/><circle class="cls-4" cx="376.2" cy="587.7" r="5.5"/><circle class="cls-4" cx="466.7" cy="561.5" r="5.5"/><circle class="cls-4" cx="330.3" cy="584.2" r="5.5"/><circle class="cls-4" cx="388.9" cy="587.8" r="5.5"/><path class="cls-1" d="M319.7,429.2s29.1-15.6,23.8,0c-2.4,7.1-4.6,21.4-9.4,36.5-5.2,16.2-13.3,33.2-27.7,43.2-4.5,3.1-9.9,4.6-15.3,3.8-8.7-1.2-17.1-8.1,5.7-37.8,0,0,53.1-56.9,117.4-51.8,0,0,1.6,54.8-74.6,79.9,0,0,67.5.2,77.7-12.8"/><circle class="cls-4" cx="319.7" cy="429.2" r="5.5"/><circle class="cls-4" cx="337" cy="455.7" r="5.5"/><circle class="cls-4" cx="309.7" cy="506.4" r="5.5"/><circle class="cls-4" cx="291.7" cy="481.8" r="5.5"/><circle class="cls-4" cx="336.1" cy="444.2" r="5.5"/><circle class="cls-4" cx="390.7" cy="423.9" r="5.5"/><circle class="cls-4" cx="403.9" cy="456.3" r="5.5"/><circle class="cls-4" cx="360.5" cy="494.5" r="5.5"/><circle class="cls-4" cx="375.4" cy="501.4" r="5.5"/><circle class="cls-4" cx="333.2" cy="423.5" r="5.5"/><circle class="cls-4" cx="332.8" cy="469.7" r="5.5"/><circle class="cls-4" cx="296.6" cy="512.7" r="5.5"/><circle class="cls-4" cx="301.1" cy="470.6" r="5.5"/><circle class="cls-4" cx="349" cy="437.2" r="5.5"/><circle class="cls-4" cx="405.3" cy="422.8" r="5.5"/><circle class="cls-4" cx="395.4" cy="468.2" r="5.5"/><circle class="cls-4" cx="347.1" cy="500.4" r="5.5"/><circle class="cls-4" cx="390" cy="499.7" r="5.5"/><circle class="cls-4" cx="344.1" cy="427.3" r="5.5"/><circle class="cls-4" cx="327.2" cy="483.3" r="5.5"/><circle class="cls-4" cx="283.4" cy="508.6" r="5.5"/><circle class="cls-4" cx="312.1" cy="461" r="5.5"/><circle class="cls-4" cx="362.4" cy="431.3" r="5.5"/><circle class="cls-4" cx="413.7" cy="428.9" r="5.5"/><circle class="cls-4" cx="385" cy="478.6" r="5.5"/><circle class="cls-4" cx="346.2" cy="503" r="5.5"/><circle class="cls-4" cx="404.4" cy="496.8" r="5.5"/><circle class="cls-4" cx="340.5" cy="441.4" r="5.5"/><circle class="cls-4" cx="319.7" cy="495.8" r="5.5"/><circle class="cls-4" cx="284.4" cy="494.5" r="5.5"/><circle class="cls-4" cx="323.8" cy="452.2" r="5.5"/><circle class="cls-4" cx="376.4" cy="426.8" r="5.5"/><circle class="cls-4" cx="410.2" cy="443.1" r="5.5"/><circle class="cls-4" cx="373.3" cy="487.3" r="5.5"/><circle class="cls-4" cx="360.8" cy="502.4" r="5.5"/><circle class="cls-4" cx="417.2" cy="490.2" r="5.5"/><path class="cls-1" d="M445,400.4s37-14.4,34.1-6.4c-2.6,7.1-33.7,122.7-43.9,147.6-1.6,3.8,1.6,3.9,5.9,2.5,4-1.2,7.7-3.2,11.1-5.7l12-8.8"/><circle class="cls-4" cx="445" cy="400.4" r="5.5"/><circle class="cls-4" cx="458.2" cy="467.7" r="5.5"/><circle class="cls-4" cx="458.5" cy="395.7" r="5.5"/><circle class="cls-4" cx="454.2" cy="481.3" r="5.5"/><circle class="cls-4" cx="472.2" cy="392" r="5.5"/><circle class="cls-4" cx="450.2" cy="495" r="5.5"/><circle class="cls-4" cx="477.5" cy="399.2" r="5.5"/><circle class="cls-4" cx="446.2" cy="508.6" r="5.5"/><circle class="cls-4" cx="473.6" cy="412.9" r="5.5"/><circle class="cls-4" cx="441.9" cy="522.2" r="5.5"/><circle class="cls-4" cx="469.8" cy="426.6" r="5.5"/><circle class="cls-4" cx="437.4" cy="535.7" r="5.5"/><circle class="cls-4" cx="465.9" cy="440.3" r="5.5"/><circle class="cls-4" cx="440" cy="544.4" r="5.5"/><circle class="cls-4" cx="462.1" cy="454" r="5.5"/><circle class="cls-4" cx="452.6" cy="538.1" r="5.5"/><circle class="cls-4" cx="464.1" cy="529.6" r="5.5"/><circle class="cls-4" cx="165.4" cy="577.9" r="5.5"/><circle class="cls-4" cx="177.3" cy="573.1" r="5.5"/><circle class="cls-4" cx="190.3" cy="572.5" r="5.5"/><circle class="cls-4" cx="203.4" cy="572.5" r="5.5"/><circle class="cls-4" cx="216.4" cy="572.5" r="5.5"/><circle class="cls-4" cx="229.4" cy="572.5" r="5.5"/><circle class="cls-4" cx="242.4" cy="572.5" r="5.5"/><circle class="cls-4" cx="255.5" cy="572.5" r="5.5"/><circle class="cls-4" cx="268.5" cy="572.5" r="5.5"/><circle class="cls-4" cx="281.5" cy="572.5" r="5.5"/><circle class="cls-4" cx="294.4" cy="571.9" r="5.5"/><circle class="cls-4" cx="306.3" cy="567" r="5.5"/><circle class="cls-4" cx="243.6" cy="573.4" r="5.5"/><circle class="cls-4" cx="176.5" cy="608.1" r="5.5"/><circle class="cls-4" cx="227.6" cy="630.2" r="5.5"/><circle class="cls-4" cx="230.9" cy="575.9" r="5.5"/><circle class="cls-4" cx="171.9" cy="620.1" r="5.5"/><circle class="cls-4" cx="240.6" cy="630" r="5.5"/><circle class="cls-4" cx="218.4" cy="579.5" r="5.5"/><circle class="cls-4" cx="175.8" cy="630.1" r="5.5"/><circle class="cls-4" cx="253.5" cy="629.8" r="5.5"/><circle class="cls-4" cx="206.4" cy="584.1" r="5.5"/><circle class="cls-4" cx="188.7" cy="630.8" r="5.5"/><circle class="cls-4" cx="266.5" cy="629.6" r="5.5"/><circle class="cls-4" cx="194.9" cy="590.2" r="5.5"/><circle class="cls-4" cx="201.6" cy="630.6" r="5.5"/><circle class="cls-4" cx="279.1" cy="627.7" r="5.5"/><circle class="cls-4" cx="184.7" cy="598.1" r="5.5"/><circle class="cls-4" cx="214.6" cy="630.4" r="5.5"/><circle class="cls-4" cx="289.5" cy="620" r="5.5"/><circle class="cls-4" cx="101.7" cy="675" r="5.5"/><circle class="cls-4" cx="201.9" cy="668.5" r="5.5"/><circle class="cls-4" cx="113.6" cy="670.7" r="5.5"/><circle class="cls-4" cx="214.6" cy="668.5" r="5.5"/><circle class="cls-4" cx="126" cy="668.4" r="5.5"/><circle class="cls-4" cx="227.2" cy="668.5" r="5.5"/><circle class="cls-4" cx="138.6" cy="668.2" r="5.5"/><circle class="cls-4" cx="239.9" cy="668.4" r="5.5"/><circle class="cls-4" cx="151.3" cy="668.4" r="5.5"/><circle class="cls-4" cx="252.5" cy="668.4" r="5.5"/><circle class="cls-4" cx="164" cy="668.5" r="5.5"/><circle class="cls-4" cx="265.2" cy="668.3" r="5.5"/><circle class="cls-4" cx="176.6" cy="668.5" r="5.5"/><circle class="cls-4" cx="277.9" cy="668.2" r="5.5"/><circle class="cls-4" cx="189.3" cy="668.5" r="5.5"/><circle class="cls-4" cx="290.5" cy="668.3" r="5.5"/><circle class="cls-4" cx="302.9" cy="666.1" r="5.5"/><circle class="cls-4" cx="313.4" cy="659.3" r="5.5"/><circle class="cls-4" cx="129.7" cy="698.7" r="5.5"/><circle class="cls-4" cx="142.6" cy="696.2" r="5.5"/><circle class="cls-4" cx="155.2" cy="695.8" r="5.5"/><circle class="cls-4" cx="152.2" cy="708.7" r="5.5"/><circle class="cls-4" cx="147.7" cy="721.2" r="5.5"/><circle class="cls-4" cx="141.5" cy="732.9" r="5.5"/><circle class="cls-4" cx="133.4" cy="743.3" r="5.5"/><circle class="cls-4" cx="122.9" cy="751.4" r="5.5"/><circle class="cls-4" cx="133.2" cy="750.4" r="5.5"/><circle class="cls-4" cx="146.4" cy="748.8" r="5.5"/><circle class="cls-4" cx="159.6" cy="747.4" r="5.5"/><circle class="cls-4" cx="172.8" cy="746.4" r="5.5"/><circle class="cls-4" cx="186.1" cy="745.7" r="5.5"/><circle class="cls-4" cx="199.3" cy="745.5" r="5.5"/><circle class="cls-4" cx="212.6" cy="745.8" r="5.5"/><circle class="cls-4" cx="225.8" cy="745.7" r="5.5"/><circle class="cls-4" cx="250.5" cy="736.7" r="5.5"/><circle class="cls-4" cx="238.6" cy="742.6" r="5.5"/><circle class="cls-4" cx="260.9" cy="728.5" r="5.5"/><circle class="cls-4" cx="269.7" cy="718.6" r="5.5"/><circle class="cls-4" cx="277" cy="707.5" r="5.5"/><circle class="cls-4" cx="381.7" cy="628.9" r="5.5"/><circle class="cls-4" cx="439.4" cy="623.6" r="5.5"/><circle class="cls-4" cx="392.4" cy="623.4" r="5.5"/><circle class="cls-4" cx="451.4" cy="625.5" r="5.5"/><circle class="cls-4" cx="403.7" cy="619.3" r="5.5"/><circle class="cls-4" cx="463.2" cy="624.5" r="5.5"/><circle class="cls-4" cx="415.6" cy="619.8" r="5.5"/><circle class="cls-4" cx="473.8" cy="618.9" r="5.5"/><circle class="cls-4" cx="427.6" cy="621.7" r="5.5"/><path class="cls-2" d="M340.7,651.9s15.7-6.1,25.4-5.8c9.6.3,103.6,0,103.6,0,0,0,14.1.5,23.7-7"/><circle class="cls-4" cx="404.5" cy="646.2" r="5.5"/><circle class="cls-4" cx="417.4" cy="646.2" r="5.5"/><circle class="cls-4" cx="430.4" cy="646.2" r="5.5"/><circle class="cls-4" cx="443.3" cy="646.1" r="5.5"/><circle class="cls-4" cx="456.2" cy="646.1" r="5.5"/><circle class="cls-4" cx="469.1" cy="646.1" r="5.5"/><circle class="cls-4" cx="481.8" cy="644.5" r="5.5"/><circle class="cls-4" cx="493.4" cy="639" r="5.5"/><circle class="cls-4" cx="340.7" cy="651.9" r="5.5"/><circle class="cls-4" cx="353" cy="648" r="5.5"/><circle class="cls-4" cx="365.7" cy="646.1" r="5.5"/><circle class="cls-4" cx="378.7" cy="646.2" r="5.5"/><circle class="cls-4" cx="391.6" cy="646.2" r="5.5"/><path class="cls-2" d="M435.7,646.8s-39.3,20.3-51.8,30.6c-14.2,11.6-54.5,29.2-63.5,22-5.8-4.7-2.2-9.2-.8-10.7s2.9-2.6,4.3-3.2c7.1-3.5,41.2-18.7,86.3-14.3,17.6,1.7,22.4,1.4,35.1,4.8,11.6,3.1,14.9,5.9,17.5,7.7s2.9,4.1,1.8,6.4c-1.8,3.7-7.8,9-25.5,15"/><circle class="cls-4" cx="435.7" cy="646.8" r="5.5"/><circle class="cls-4" cx="351.4" cy="694.9" r="5.5"/><circle class="cls-4" cx="424.9" cy="652.5" r="5.5"/><circle class="cls-4" cx="339.9" cy="698.9" r="5.5"/><circle class="cls-4" cx="414.3" cy="658.4" r="5.5"/><circle class="cls-4" cx="328" cy="701.1" r="5.5"/><circle class="cls-4" cx="403.7" cy="664.4" r="5.5"/><circle class="cls-4" cx="317.7" cy="696.2" r="5.5"/><circle class="cls-4" cx="393.4" cy="670.7" r="5.5"/><circle class="cls-4" cx="322.4" cy="686.2" r="5.5"/><circle class="cls-4" cx="383.4" cy="677.7" r="5.5"/><circle class="cls-4" cx="333.5" cy="681.3" r="5.5"/><circle class="cls-4" cx="373.3" cy="684.5" r="5.5"/><circle class="cls-4" cx="368.7" cy="672.2" r="5.5"/><circle class="cls-4" cx="405.1" cy="670.7" r="5.5"/><circle class="cls-4" cx="417.2" cy="671.8" r="5.5"/><circle class="cls-4" cx="439" cy="705.1" r="5.5"/><circle class="cls-4" cx="450.3" cy="700.6" r="5.5"/><circle class="cls-4" cx="460.8" cy="694.4" r="5.5"/><circle class="cls-4" cx="463.5" cy="684.3" r="5.5"/><circle class="cls-4" cx="452.9" cy="678.4" r="5.5"/><circle class="cls-4" cx="441.2" cy="674.9" r="5.5"/><circle class="cls-4" cx="429.3" cy="672.9" r="5.5"/><circle class="cls-4" cx="392.9" cy="670.4" r="5.5"/><circle class="cls-4" cx="380.8" cy="670.9" r="5.5"/><circle class="cls-4" cx="345" cy="677.4" r="5.5"/><circle class="cls-4" cx="362.6" cy="690.1" r="5.5"/><circle class="cls-4" cx="356.8" cy="674.4" r="5.5"/><path class="cls-2" d="M286.5,729.5s17.2-9.6,33-9.6,154.3,0,154.3,0c0,0,17.9,1.2,28.3-9.2"/><circle class="cls-4" cx="286.5" cy="729.5" r="5.5"/><circle class="cls-4" cx="388.2" cy="719.9" r="5.5"/><circle class="cls-4" cx="298.3" cy="724.2" r="5.5"/><circle class="cls-4" cx="401" cy="719.9" r="5.5"/><circle class="cls-4" cx="310.7" cy="720.8" r="5.5"/><circle class="cls-4" cx="413.9" cy="719.9" r="5.5"/><circle class="cls-4" cx="323.6" cy="719.9" r="5.5"/><circle class="cls-4" cx="426.9" cy="719.9" r="5.5"/><circle class="cls-4" cx="336.5" cy="719.9" r="5.5"/><circle class="cls-4" cx="439.8" cy="719.9" r="5.5"/><circle class="cls-4" cx="349.4" cy="719.9" r="5.5"/><circle class="cls-4" cx="452.7" cy="719.9" r="5.5"/><circle class="cls-4" cx="362.3" cy="719.9" r="5.5"/><circle class="cls-4" cx="491.1" cy="717.4" r="5.5"/><circle class="cls-4" cx="502.1" cy="710.7" r="5.5"/><circle class="cls-4" cx="465.6" cy="719.9" r="5.5"/><circle class="cls-4" cx="375.2" cy="719.9" r="5.5"/><circle class="cls-4" cx="478.5" cy="719.9" r="5.5"/><path class="cls-2" d="M394.9,722.8s-6.6,26.8-14.6,36.1"/><circle class="cls-4" cx="394.9" cy="722.8" r="5.5"/><circle class="cls-4" cx="391.3" cy="735.4" r="5.5"/><circle class="cls-4" cx="386.8" cy="747.6" r="5.5"/><circle class="cls-4" cx="380.3" cy="759" r="5.5"/><path class="cls-2" d="M307.4,762.7s34.7-16.9,30.8-8.4-18.7,50.6-18.7,50.6c0,0-2.3,8.2-21.3,15.7,0,0,16.9-21.8,129.5-11.1,0,0,23.9,1.1,32-8.1"/><circle class="cls-4" cx="307.4" cy="762.7" r="5.5"/><circle class="cls-4" cx="313.9" cy="811.9" r="5.5"/><circle class="cls-4" cx="375.8" cy="806.6" r="5.5"/><circle class="cls-4" cx="318.6" cy="757.6" r="5.5"/><circle class="cls-4" cx="303.5" cy="818.3" r="5.5"/><circle class="cls-4" cx="388.1" cy="806.8" r="5.5"/><circle class="cls-4" cx="330" cy="753.3" r="5.5"/><circle class="cls-4" cx="303.6" cy="816.9" r="5.5"/><circle class="cls-4" cx="400.4" cy="807.4" r="5.5"/><circle class="cls-4" cx="337.6" cy="755.9" r="5.5"/><circle class="cls-4" cx="315" cy="812.5" r="5.5"/><circle class="cls-4" cx="412.6" cy="808.2" r="5.5"/><circle class="cls-4" cx="333.1" cy="767.3" r="5.5"/><circle class="cls-4" cx="327" cy="809.8" r="5.5"/><circle class="cls-4" cx="424.9" cy="809.2" r="5.5"/><circle class="cls-4" cx="328.9" cy="778.8" r="5.5"/><circle class="cls-4" cx="339.1" cy="808.1" r="5.5"/><circle class="cls-4" cx="437.1" cy="809.3" r="5.5"/><circle class="cls-4" cx="324.7" cy="790.4" r="5.5"/><circle class="cls-4" cx="351.3" cy="807.1" r="5.5"/><circle class="cls-4" cx="449.2" cy="807.2" r="5.5"/><circle class="cls-4" cx="320.6" cy="801.9" r="5.5"/><circle class="cls-4" cx="363.6" cy="806.6" r="5.5"/><circle class="cls-4" cx="459.8" cy="801.4" r="5.5"/><path class="cls-2" d="M332.2,773.7s39.7-22.6,109.5-16.9c0,0-6.5,37.1-51.8,48.9"/><circle class="cls-4" cx="332.2" cy="773.7" r="5.5"/><circle class="cls-4" cx="429.3" cy="756.1" r="5.5"/><circle class="cls-4" cx="343.5" cy="768.6" r="5.5"/><circle class="cls-4" cx="441.6" cy="756.9" r="5.5"/><circle class="cls-4" cx="355.3" cy="764.7" r="5.5"/><circle class="cls-4" cx="437.4" cy="768.6" r="5.5"/><circle class="cls-4" cx="367.4" cy="761.5" r="5.5"/><circle class="cls-4" cx="431" cy="779.2" r="5.5"/><circle class="cls-4" cx="379.6" cy="759.1" r="5.5"/><circle class="cls-4" cx="422.6" cy="788.5" r="5.5"/><circle class="cls-4" cx="392" cy="757.4" r="5.5"/><circle class="cls-4" cx="412.7" cy="796" r="5.5"/><circle class="cls-4" cx="404.4" cy="756.3" r="5.5"/><circle class="cls-4" cx="401.7" cy="801.7" r="5.5"/><circle class="cls-4" cx="416.8" cy="755.9" r="5.5"/><circle class="cls-4" cx="389.8" cy="805.7" r="5.5"/></g><g id="Layer_3"><g id="Layer_1-2"><line class="cls-3" x1="215.4" y1="197.5" x2="215.4" y2="350.5"/><line class="cls-3" x1="273.8" y1="207.7" x2="272.4" y2="338.9"/><line class="cls-3" x1="215.4" y1="188.9" x2="267.3" y2="199"/><line class="cls-3" x1="214" y1="174.9" x2="312.3" y2="174.9"/><line class="cls-3" x1="312.3" y1="185.6" x2="312.3" y2="355.5"/><line class="cls-3" x1="215.9" y1="368.1" x2="312.3" y2="368.1"/><line class="cls-3" x1="224" y1="355.5" x2="267.3" y2="344.6"/><line class="cls-3" x1="257.3" y1="268.1" x2="257.3" y2="275.5"/></g></g></svg>