<?xml version="1.0" encoding="UTF-8"?>
<svg id="Layer_12" data-name="Layer 12" xmlns="http://www.w3.org/2000/svg" viewBox="0 0 1486.03 1417.3">
  <defs>
    <style>
      .cls-1 {
        fill: #fff;
      }
    </style>
  </defs>
  <path class="cls-1" d="M368.73,380.94l-40.07-17.22c-12.85,28.39,3.95,59.18,22.51,80.66,4.49,5.19,44.62,44.09,48.32,41.58l24.47-36.09c-21.95-17.64-52.39-38.75-55.23-68.93ZM573.22,415c-38.12,5.78-73.77-5.87-95.2-38.75-1.56-2.4-5.15-12.1-7.07-12.54l-39.57,17.79c14.1,36.76,47.22,64.93,85.32,74.74,20.88,5.37,43.78,5.05,65.04,2.75l-8.52-43.99ZM255.16,389.31l-45.28,1.23c2.59,58.65,49.25,105.11,98.54,130.64l20.14-40.09c-34.17-17.6-71.97-50.53-73.4-91.78ZM1063.8,656.02v-21.41c0-.34-1.25-2.85-2.06-3.1-79.69,2.42-162.81-18.24-197.56-97.01-15.09-34.21-18.58-71.95-16.97-109.15.19-4.38,3.6-21.63,1.97-23.89l-42.19-8.39c-15.33,84.43,5.08,183.6,77.08,236.54,40.89,30.07,89.45,41.57,139.35,46.59-105.67,65.95-183.4,172.97-217.41,292.75-23.09,81.32-29.57,174.56-15.18,257.94.37,2.17.1,4.41.14,6.58l44.02-8.62c-12.36-77.41-8.63-158.3,11.12-234.15,42.26-162.27,196.12-342.37,380.66-313.55,9.1,1.42,18.56,4.18,27.34,6.99l2.35-1.2,15.29-40.35c-67.99-21.96-143.03-15.05-207.96,13.43ZM650.8,470.79c-2.17-2.92-11.64-18.27-14.41-17.77l-32.56,29.89c58.16,68.82,82.32,161.43,63.02,250.22-9.05,41.62-28.99,80.12-50.92,116.1-50.85-4.84-105.71-.98-155.26,11.7-141.86,36.31-219.57,147.16-240.64,287.87-7.2,48.11-9.2,97.56-2.8,145.84,12.17-2.45,24.8-2.62,36.93-5.28,1.59-.35,4.89-.67,5.9-1.43,2.49-1.88-.96-18.97-1.23-23.28-4.35-69.66,6.57-151.19,36.1-214.68,67.97-146.13,215.18-170.4,362.08-152.92,5.04.6,34.46,6.61,36.11,4.88l5.6-42.91-33.73-5.41c47.13-77.03,65.15-168.48,44.42-257.31-10.63-45.54-30.84-88.22-58.61-125.5ZM239.2,534.95l-38.42-19.62c-34.16,68.3-45.6,151.32-28,226.11,17.96,76.33,68.72,141.67,133.04,184.92l25.07-35.91c-28.65-21.39-55.44-45.12-76.02-74.51-55.13-78.71-56.74-172.33-23.91-260.57,1.18-3.18,9.1-19.19,8.23-20.42ZM595.25,674.37v-43.43c0-2.4-11.58-.85-13.94-.48-40.5,6.29-69.41,32.38-61.37,75.79,4.75,25.65,23.88,52.46,40.43,71.88l33.52-27.47c-9.63-15-35.78-45.34-29.9-64.12,2.51-8.03,23.55-12.22,31.26-12.17Z"/>
  <path d="M1187.97,592.4c-.65-.11-1.88-1.31-2.95-1.36l8.46-42.67c7.68-.14,19.42,1.29,25.62-4.36,6.66-6.06,7.3-36.47-1.18-40.29-5.98-2.69-15.86,1.4-21.4-.59-1.33-1.44-13.02-33.58-13.58-36.75-.35-1.98-.17-3.14.77-4.88l-533.41-183.53,15.38-42.85,149.66,51.33c58.62-145.29,231.94-207.2,370.4-131.03,93.53,51.46,147.18,157.12,133.61,263.71-3.58,28.13-13,54.77-21.95,81.43l-34.17-10.94c11.25,33.86,7.66,81.4-29.4,97.24-2.27.97-15.14,5.53-16.49,5.53-8.22,0-22.02,1.23-29.36,0ZM1216.05,234.6c-94.9-98.3-256.88-87.69-335.53,24.64-4.49,6.41-23.24,36.66-22.33,42.52l409.32,142.51c1.55-.15,5.91-19.77,6.4-22.85,10.75-67.94-10.31-137.57-57.86-186.82Z"/>
  <path d="M1063.8,656.02c64.93-28.48,139.97-35.39,207.96-13.43l-15.29,40.35-2.35,1.2c-8.77-2.81-18.24-5.57-27.34-6.99-184.53-28.82-338.4,151.29-380.66,313.55-19.75,75.85-23.48,156.74-11.12,234.15l-44.02,8.62c-.04-2.17.23-4.41-.14-6.58-14.4-83.38-7.91-176.62,15.18-257.94,34.01-119.77,111.74-226.8,217.41-292.75-49.9-5.02-98.47-16.52-139.35-46.59-72-52.94-92.41-152.11-77.08-236.54l42.19,8.39c1.63,2.26-1.78,19.51-1.97,23.89-1.61,37.2,1.88,74.94,16.97,109.15,34.75,78.77,117.87,99.43,197.56,97.01.81.25,2.06,2.76,2.06,3.1v21.41Z"/>
  <path d="M650.8,470.79c27.78,37.28,47.99,79.96,58.61,125.5,20.73,88.84,2.7,180.28-44.42,257.31l33.73,5.41-5.6,42.91c-1.65,1.73-31.07-4.28-36.11-4.88-146.9-17.48-294.11,6.79-362.08,152.92-29.53,63.48-40.44,145.02-36.1,214.68.27,4.31,3.71,21.4,1.23,23.28-1.01.76-4.31,1.08-5.9,1.43-12.14,2.66-24.76,2.83-36.93,5.28-6.4-48.28-4.4-97.73,2.8-145.84,21.07-140.71,98.77-251.56,240.64-287.87,49.55-12.68,104.41-16.54,155.26-11.7,21.94-35.98,41.88-74.48,50.92-116.1,19.31-88.79-4.86-181.41-63.02-250.22l32.56-29.89c2.76-.5,12.24,14.86,14.41,17.77Z"/>
  <path d="M239.2,534.95c.86,1.23-7.05,17.24-8.23,20.42-32.83,88.24-31.21,181.86,23.91,260.57,20.58,29.39,47.37,53.11,76.02,74.51l-25.07,35.91c-64.32-43.26-115.08-108.59-133.04-184.92-17.6-74.78-6.16-157.81,28-226.11l38.42,19.62Z"/>
  <path d="M595.25,674.37c-7.71-.05-28.75,4.14-31.26,12.17-5.88,18.77,20.27,49.11,29.9,64.12l-33.52,27.47c-16.55-19.42-35.67-46.24-40.43-71.88-8.04-43.41,20.87-69.5,61.37-75.79,2.36-.37,13.94-1.91,13.94.48v43.43Z"/>
  <path d="M573.22,415l8.52,43.99c-21.26,2.3-44.16,2.63-65.04-2.75-38.09-9.8-71.22-37.97-85.32-74.74l39.57-17.79c1.92.44,5.5,10.14,7.07,12.54,21.43,32.88,57.08,44.53,95.2,38.75Z"/>
  <path d="M255.16,389.31c1.43,41.25,39.22,74.18,73.4,91.78l-20.14,40.09c-49.29-25.53-95.95-71.99-98.54-130.64l45.28-1.23Z"/>
  <path d="M368.73,380.94c2.84,30.18,33.27,51.29,55.23,68.93l-24.47,36.09c-3.69,2.52-43.83-36.38-48.32-41.58-18.56-21.48-35.36-52.28-22.51-80.66l40.07,17.22Z"/>
</svg>