<?xml version="1.0" encoding="UTF-8"?><svg id="Layer_5" xmlns="http://www.w3.org/2000/svg" viewBox="0 0 2834.6 2834.6"><defs><style>.cls-1{fill:none;stroke:#000;stroke-miterlimit:10;stroke-width:85px;}</style></defs><line class="cls-1" x1="1129.6" y1="670.6" x2="443" y2="1304.5"/><line class="cls-1" x1="1931.2" y1="911" x2="1931.2" y2="2167.8"/><line class="cls-1" x1="2248.8" y1="666.8" x2="2248.8" y2="1923.6"/><line class="cls-1" x1="1181.4" y1="884.4" x2="763.5" y2="1249.4"/><line class="cls-1" x1="1433.1" y1="884.4" x2="1015.3" y2="1249.4"/><line class="cls-1" x1="1931.2" y1="744.9" x2="1244.5" y2="1378.8"/><line class="cls-1" x1="1276.3" y1="685.2" x2="1728" y2="685.2"/><line class="cls-1" x1="2030.3" y1="841.4" x2="2161.4" y2="710"/><line class="cls-1" x1="2030.3" y1="2073.6" x2="2161.4" y2="1942.2"/><line class="cls-1" x1="820.9" y1="2124.1" x2="1813.7" y2="2124.1"/><line class="cls-1" x1="595" y1="1378.8" x2="1046.8" y2="1378.8"/><line class="cls-1" x1="857.3" y1="1996.6" x2="857.3" y2="1539.4"/><line class="cls-1" x1="1129.6" y1="1592.3" x2="1129.6" y2="1996.6"/><line class="cls-1" x1="1574.8" y1="1592.3" x2="1574.8" y2="1996.6"/><line class="cls-1" x1="1224.2" y1="1637.6" x2="1481.9" y2="1637.6"/></svg>