<svg width="1337" height="687" viewBox="0 0 1337 687" fill="none" xmlns="http://www.w3.org/2000/svg">
<path d="M40.1628 118.814C17.6853 117.175 4.28697 96.6144 6.5932 64.9794C8.89943 33.3444 25.1381 14.9442 47.6156 16.5829C67.7621 18.0516 80.7493 35.0673 81.3047 61.8894L117.756 64.7141L121.489 8.91235L140.137 10.2718C136.13 58.3539 132.719 105.14 129.711 153.295L111.063 151.936L116.567 81.0311L80.0909 78.5394C75.8057 105.176 60.4758 120.295 40.1628 118.814ZM41.3281 102.83C53.1495 103.692 61.816 90.4305 63.3697 69.1185C64.9112 47.973 58.2597 33.5952 46.4382 32.7334C34.4502 31.8594 25.7837 45.1206 24.2422 66.2661C22.6885 87.578 29.3401 101.956 41.3281 102.83Z" fill="black"/>
<path d="M277.896 164.098L283.448 92.5274C274.457 91.872 264.455 91.3102 255.285 90.8091L256.523 73.8261C265.669 74.6602 275.647 75.555 284.638 76.2104L288.322 21.0747L306.637 22.4099C302.63 70.4919 299.219 117.278 296.211 165.433L277.896 164.098ZM197.805 128.465C201.402 125.045 204.715 120.934 207.885 116.479C203.136 110.441 199.126 103.454 195.973 96.1935C190.377 108.674 183.046 119.689 174.35 128.764L159.711 118.323C177.624 102.221 188.581 75.9032 192.334 47.3866L173.674 46.1936L174.887 29.5436C205 32.0736 235.469 34.2949 265.463 36.1467L264.25 52.7967L247.279 51.3921C246.124 60.3467 244.469 69.2649 242.34 77.8137C245.882 95.8146 256.356 115.158 266.58 126.449L251.342 135.716C245.037 128.058 238.525 116.369 233.738 103.968C228.056 117.614 220.806 129.807 212.098 139.048L197.805 128.465ZM204.345 73.2025C207.137 83.1144 211.298 92.6239 216.734 100.72C223.511 85.8146 228.14 68.2419 230.296 50.1541L209.15 48.6125C208.044 56.9011 206.438 65.1533 204.345 73.2025Z" fill="black"/>
<path d="M337.363 133.617C339.881 103.672 342.09 73.3687 343.954 43.2079C369.071 45.3738 394.046 47.1945 419.046 48.6822L417.844 65.1657C398.887 63.4489 380.572 62.1137 361.591 60.73C360.045 77.3557 358.272 101.665 357.392 118.339C374.695 119.768 402.586 120.629 422.321 118.553L422.44 135.3C401.384 137.113 367.666 135.826 337.363 133.617ZM435.238 175.569C439.245 127.487 442.656 80.7001 445.665 32.5452L464.313 33.9046L459.598 93.9868C467.09 94.533 475.594 94.9856 482.944 95.1867L481.67 112.669C474.368 111.802 465.889 111.017 458.396 110.47L453.886 176.928L435.238 175.569Z" fill="black"/>
<path d="M513.709 123.207C515.814 98.922 517.586 74.613 519.038 50.1132L537.685 51.4727L536.338 69.9542L610.431 75.3556L611.778 56.8741L630.259 58.2215C628.154 82.5062 626.37 106.982 624.931 131.315L578.668 127.608L576.402 156.4L639.351 160.822L638.137 177.472C590.221 173.476 541.937 169.956 494.115 166.972L495.341 150.156L558.253 155.077L560.187 126.26L513.709 123.207ZM533.51 108.749L607.602 114.15L609.314 90.6736L535.221 85.2722L533.51 108.749Z" fill="black"/>
<path d="M673.421 157.279C676.142 126.846 678.148 97.0308 679.869 66.5249L698.684 67.8965C696.275 96.3437 694.561 122.163 692.925 142.298C712.406 143.718 742.676 144.083 763.983 141.117L763.958 157.519C741.677 160.079 707.72 159.78 673.421 157.279ZM776.563 200.452C780.57 152.37 783.981 105.583 786.989 57.4282L805.637 58.7877C801.63 106.87 798.219 153.656 795.211 201.811L776.563 200.452Z" fill="black"/>
<path d="M507.021 289.109C485.252 282.658 474.239 264.594 480.452 243.626C486.619 222.818 505.649 213.832 527.417 220.283C549.186 226.734 559.927 244.543 553.76 265.351C547.547 286.319 528.789 295.56 507.021 289.109ZM511.385 274.383C523.229 277.894 533.444 272.215 536.954 260.37C540.369 248.846 534.898 238.518 523.053 235.008C510.889 231.403 500.834 237.13 497.419 248.654C493.909 260.499 499.22 270.779 511.385 274.383ZM574.898 312.707L579.422 298.029L551.317 290.048L556.013 274.202C565.089 277.065 574.965 280.166 584.089 282.87L588.879 266.704C579.916 264.048 569.785 261.219 560.614 258.676L565.31 242.83L593.386 251.498L598.188 234.117L616.115 239.429C607.903 265.377 600.077 291.787 592.825 318.019L574.898 312.707ZM475.475 327.991L498.156 334.887L501.073 317.991L518.645 322.154L514.962 339.867L544.574 348.643L550.977 331.735L567.979 337.819L561.54 353.671L583.996 360.151L579.775 374.397C542.735 363.072 508.482 352.921 471.253 342.237L475.475 327.991ZM488.341 292.802C521.699 303.035 557.552 313.66 591.1 323.254L586.878 337.499C553.52 327.266 517.667 316.641 484.119 307.047L488.341 292.802Z" fill="black"/>
<path d="M632.387 390.162C636.247 377.725 639.615 366.361 643.155 353.828L729.908 379.537L732.28 371.534L645.526 345.825L649.748 331.58C684.594 342.08 718.527 352.136 753.628 362.364C749.863 374.481 746.495 385.846 743.003 398.218L656.249 372.509L653.783 380.832L744.378 407.679L740.109 422.085C704.302 411.3 668.289 400.627 632.387 390.162ZM737.284 352.297C744.69 329.071 751.805 305.061 758.25 281.55L776.176 286.863C768.771 310.089 761.656 334.099 755.211 357.61L737.284 352.297ZM632.652 311.713C668.257 314.952 691.905 305.071 701.445 288.744L651.458 274.105L655.917 259.06C678.551 266.115 702.72 273.278 725.543 279.693C714.871 315.707 678.785 331.131 637.489 328.295L632.652 311.713Z" fill="black"/>
<path d="M774.067 406.205L834.475 424.455L840.908 402.159L796.204 389.085C800.965 373.606 805.139 359.521 809.627 343.787L898.781 370.208L903.667 353.722L814.833 327.396L819.292 312.35C856.331 323.675 888.663 333.257 925.893 343.941C921.131 359.419 916.815 373.985 912.374 389.558L823.22 363.138L818.476 379.144L909.871 406.229L905.365 421.434L858.675 407.424L851.922 429.625L912.52 447.235L907.824 463.081C861.868 448.94 815.451 435.184 769.371 422.051L774.067 406.205Z" fill="black"/>
<path d="M780.347 660.071C772.157 617.615 763.508 574.57 754.728 532.572L772.241 529.053L782.306 580.839L799.328 577.419L787.654 521.018L805.331 517.466C814.18 564.899 823.422 610.89 833.58 658.059L815.904 661.611L802.485 593.131L785.463 596.551L797.86 656.553L780.347 660.071ZM686.009 643.95C705.531 618.231 712.051 586.271 708.615 551.373L726.359 550.703C727.55 564.256 727.234 577.09 725.772 589.304C735.05 604.127 750.352 617.569 765.78 625.707L754.235 639.436C743.163 632.636 730.712 622.367 721.273 610.982C717.062 625.62 710.756 639.147 702.091 651.956L686.009 643.95Z" fill="black"/>
<path d="M864.222 618.187C858.268 586.861 852.184 556.581 845.575 525.386L862.924 521.9L868.976 552.016L905.474 544.682L899.423 514.567L916.772 511.081L924.403 549.903L959.952 542.931L948.706 488.658L967.037 484.975C976.051 532.374 985.292 578.365 995.287 625.568L976.956 629.251L963.175 558.97L927.691 566.27L935.419 603.882C912.275 608.191 887.234 613.223 864.222 618.187ZM878.381 598.825L914.88 591.492L908.598 560.231L872.1 567.564L878.381 598.825Z" fill="black"/>
<path d="M1128.27 541.634L1124.94 523.401C1115.45 525.308 1105.17 527.544 1095.71 529.615L1092.42 513.248C1101.95 511.504 1112.46 509.563 1121.79 507.689L1119.02 493.94C1109.7 495.815 1099.25 498.083 1089.79 500.154L1086.47 483.624C1096 481.88 1106.34 479.972 1115.83 478.064L1111.07 456.034L1129.4 452.351C1134.66 481.092 1140.38 509.571 1146.6 537.951L1128.27 541.634ZM1036.58 602.285C1053.11 593.856 1063.05 575.513 1060.58 558.981L1078.65 557.394C1079.54 562.664 1079.25 568.001 1077.94 573.371C1083.02 578.311 1090.85 582.527 1100.21 585.072C1112.19 575.174 1118.17 560.862 1116.06 547.833L1134.3 546.212C1135.18 551.483 1134.89 556.82 1133.59 562.19C1140.01 568.732 1151.31 574.124 1165.03 575.454L1157.38 589.932C1146.81 588.141 1135.7 583.731 1127.32 577.583C1121.76 587.214 1113.42 595.701 1103.57 601.767C1092.34 600.107 1080.68 595.468 1072 588.699C1066.6 598.297 1058.62 606.882 1049.39 612.652L1036.58 602.285ZM1023.48 559.113C1020.69 544.35 1017.86 530.274 1014.73 515.576L1064 505.678L1061.07 491.111L1012.33 501.075L1009.37 486.344C1031.57 482.396 1053.66 477.956 1075.49 473.058C1078.22 487.494 1081.12 501.897 1084.08 515.776L1034.98 525.642C1035.83 530.749 1036.92 536.15 1038.1 541.191C1054.34 538.099 1074.21 533.596 1092.37 529.094L1095.46 543.628C1072.55 549.083 1048.39 554.278 1023.48 559.113Z" fill="black"/>
<path d="M1190.09 551.008C1184.5 521.481 1178.51 491.693 1172.23 462.135C1197.01 457.496 1221.56 452.563 1246.05 447.303L1249.3 463.506C1230.58 466.928 1212.57 470.546 1193.92 474.295C1196.88 490.727 1201.68 514.623 1205.29 530.925C1222.35 527.668 1249.45 521.03 1267.91 513.746L1272.51 529.85C1252.71 537.234 1219.88 545.023 1190.09 551.008ZM1295.62 565.221C1286.61 517.821 1277.37 471.83 1267.37 424.628L1285.7 420.945L1297.25 480.095C1304.61 478.615 1312.93 476.775 1320.06 475L1323.52 492.186C1316.25 493.305 1307.87 494.819 1300.5 496.299L1313.95 561.537L1295.62 565.221Z" fill="black"/>
</svg>
