<?xml version="1.0" encoding="UTF-8"?><svg xmlns="http://www.w3.org/2000/svg" viewBox="0 0 2834.6 2834.6"><defs><style>.cls-1{fill:#fff;}.cls-2{fill:none;stroke:#000;stroke-width:85px;}</style></defs><g id="Layer_3"><path class="cls-1" d="M2670.4,1322.7l-82-580.3-775.4,341.5h-332.3v-82.5c107.5-35.2,185.2-136.3,185.2-255.6s-120.4-268.9-268.9-268.9-268.9,120.4-268.9,268.9,81.4,225.2,192.9,258v80.2h-325.5L220.3,742.4l-82,580.3,470.8,350.8-453.5,747.7h2483l-439-747.7,470.8-350.8Z"/></g><g id="Layer_2"><path class="cls-2" d="M155.6,2421.2l396.9-646.1"/><path class="cls-2" d="M2638.6,2421.2l-396.9-646.1"/><path class="cls-2" d="M609.1,1673.5l-470.8-350.8"/><path class="cls-2" d="M995.7,1084L220.3,742.4"/><path class="cls-2" d="M2199.6,1673.5l470.8-350.8"/><path class="cls-2" d="M1813,1084l775.4-341.5"/><path class="cls-2" d="M1313.5,648.9l-92.3,101.5,92.3,92.3"/><path class="cls-2" d="M1480.7,842.8l92.3-101.5-92.3-92.3"/><path class="cls-2" d="M1229.8,745.8h167.3"/><path class="cls-2" d="M1564.4,745.8h-167.3"/><circle class="cls-2" cx="1397.1" cy="745.8" r="280.7"/><path class="cls-2" d="M1321.1,1014.5v178.6M1480.2,1014.5v178.6"/></g></svg>