<?xml version="1.0" encoding="UTF-8"?><svg id="Layer_14" xmlns="http://www.w3.org/2000/svg" viewBox="0 0 2834.6 2834.6"><defs><style>.cls-1{fill:none;stroke:#000;stroke-miterlimit:10;stroke-width:96px;}</style></defs><path class="cls-1" d="M822.6,1297.6s-212.2,767.9,544.5,776.1"/><path class="cls-1" d="M1081.1,1242.2s35.1,203,247.3,203"/><path class="cls-1" d="M1617.5,1343.7s35.1,203,247.3,203"/><ellipse class="cls-1" cx="1276.2" cy="1766" rx="144.5" ry="80.3"/><path class="cls-1" d="M1127.2,785.4s-127.6,161.5,52.6,323"/><path class="cls-1" d="M1362.7,850.5s-127.6,161.5,52.6,323"/><path class="cls-1" d="M1598.1,850.5s-127.6,161.5,52.6,323"/><path class="cls-1" d="M1833.5,946.9s-127.6,161.5,52.6,323"/><path class="cls-1" d="M2077.7,1500.6s76.8-111.3,187-34.8c124.6,86.5,38.1,184.4,38.1,184.4,0,0-87.8,126.6-201.8,51.4l-75.2,108.4"/><line class="cls-1" x1="1991.9" y1="1858.8" x2="1942.6" y2="1929.9"/><line class="cls-1" x1="675.9" y1="1043" x2="709" y2="1122.9"/><path class="cls-1" d="M416.2,769.6s-52-124.8,71.9-176.1c140.2-58,175.7,67.7,175.7,67.7,0,0,58.9,142.3-66,197.5l50.5,121.9"/></svg>