<?xml version="1.0" encoding="UTF-8"?><svg id="Layer_7" xmlns="http://www.w3.org/2000/svg" viewBox="0 0 2834.6 2834.6"><defs><style>.cls-1{fill:none;stroke:#000;stroke-miterlimit:10;stroke-width:96px;}</style></defs><polyline class="cls-1" points="1945.4 614.3 1592.3 1040.5 1445.8 869.6"/><polygon class="cls-1" points="1914.4 1015.8 1704.5 1292.3 1704.5 1482.2 1954.2 1427.9 1914.4 1015.8"/><polyline class="cls-1" points="792.9 614.3 1145.9 1040.5 1292.5 869.6"/><polygon class="cls-1" points="823.8 1015.8 1033.8 1292.3 1033.8 1482.2 784 1427.9 823.8 1015.8"/><line class="cls-1" x1="1239.9" y1="1639.7" x2="979.6" y2="1726.5"/><line class="cls-1" x1="1761.5" y1="1720.5" x2="1497.5" y2="1645.7"/><path class="cls-1" d="M1370,1249c0,27.4-117.6,702.7-117.6,702.7h205l-51.7-225"/><polyline class="cls-1" points="1109.7 1951.7 827.7 2171.2 1761.5 2171.2 1829.3 1984.1 1629.5 1924.5"/></svg>