<?xml version="1.0" encoding="UTF-8"?><svg id="Layer_9" xmlns="http://www.w3.org/2000/svg" viewBox="0 0 2834.6 2834.6"><defs><style>.cls-1{fill:none;stroke:#000;stroke-miterlimit:10;stroke-width:96px;}</style></defs><line class="cls-1" x1="750.3" y1="1333.5" x2="910.5" y2="2220.7"/><path class="cls-1" d="M973.8,2327.3s289.1,295.7,754.5,73.9"/><line class="cls-1" x1="2056.4" y1="1440.1" x2="1788.2" y2="2327.3"/><path class="cls-1" d="M910.5,1333.5s409.5,312,973.4,156.1"/><path class="cls-1" d="M1227.9,1333.5s-129.5-714.7-850.3-206.4"/><path class="cls-1" d="M1397.2,1333.5s446.7-1007.3,0,443.6"/><path class="cls-1" d="M1685.1,1325.4s668.7-822.5,742.6-55.4"/><path class="cls-1" d="M1351.1,1134.1s-311.8-737.1,239.9-783.3"/><line class="cls-1" x1="1024.5" y1="1777.1" x2="1263.3" y2="2079"/><line class="cls-1" x1="1007.4" y1="2049.7" x2="1309.3" y2="1810.9"/><line class="cls-1" x1="1461.9" y1="1827.2" x2="1700.7" y2="2129.1"/><line class="cls-1" x1="1444.8" y1="2099.7" x2="1746.7" y2="1860.9"/></svg>