<?xml version="1.0" encoding="UTF-8"?><svg id="Layer_1" xmlns="http://www.w3.org/2000/svg" viewBox="0 0 2834.6 2834.6"><defs><style>.cls-1{fill:none;stroke:#000;stroke-miterlimit:10;stroke-width:85px;}</style></defs><line class="cls-1" x1="1417.3" y1="1394.2" x2="1417.3" y2="1473.3"/><line class="cls-1" x1="896.6" y1="410.6" x2="1938" y2="410.6"/><line class="cls-1" x1="1003.7" y1="550" x2="1566" y2="666.9"/><line class="cls-1" x1="1003.7" y1="2323.6" x2="1532" y2="2205.7"/><line class="cls-1" x1="1938" y1="523.8" x2="1938" y2="2323.6"/><line class="cls-1" x1="896.6" y1="523.8" x2="896.6" y2="2323.6"/><line class="cls-1" x1="1573.2" y1="740.3" x2="1573.2" y2="2107.1"/><line class="cls-1" x1="916.6" y1="2456.8" x2="1938" y2="2456.8"/><line class="cls-1" x1="896.6" y1="410.6" x2="1938" y2="410.6"/><line class="cls-1" x1="1938" y1="523.8" x2="1938" y2="2323.6"/><line class="cls-1" x1="896.6" y1="523.8" x2="896.6" y2="2323.6"/><line class="cls-1" x1="916.6" y1="2456.8" x2="1938" y2="2456.8"/><line class="cls-1" x1="1938" y1="285.8" x2="1977.9" y2="86.2"/><line class="cls-1" x1="2036.9" y1="339.5" x2="2137" y2="238.2"/><line class="cls-1" x1="2082.4" y1="444.2" x2="2288.9" y2="415.2"/></svg>