<?xml version="1.0" encoding="UTF-8"?><svg id="Layer_18" xmlns="http://www.w3.org/2000/svg" viewBox="0 0 2834.6 2834.6"><defs><style>.cls-1{fill:none;stroke:#000;stroke-miterlimit:10;stroke-width:96px;}</style></defs><path class="cls-1" d="M2171.3,1282.3s45.5-242.4-218.6-260.8c-245.4-16.9-326.2-10.8-446-106.6-118.6-94.1-284.5-256.6-372.4-205.2-87.9,51.4-87.2,129.9-1.7,213,32.8,31.3,64.1,81.2,144.9,102.6l-22,38.6-607.1,4.4s-146.2,7.4-146.4,127.8c-.8,124.6,167.2,126.5,167.2,126.5l618.6-4s168.1-8.3,166.9,146.7c-.5,76.8-37.6,124.8-66.9,138.9-37,17.8-106.4,21.6-132.3,21.6-123.6,0-292.5-5.8-295-164.3"/><path class="cls-1" d="M1040.2,1711.9c20.7,99,85.1,215.1,304.5,203.2,219.5-11.8,191.2-200.5,191.2-200.5"/><path class="cls-1" d="M1996.3,1656.6c-389.9-2-377-406.1-377-406.1"/><path class="cls-1" d="M1692.5,1917.7c559.1,51.8,476.7-529.8,476.7-529.8"/></svg>