<?xml version="1.0" encoding="UTF-8"?><svg id="Layer_10" xmlns="http://www.w3.org/2000/svg" viewBox="0 0 2834.6 2834.6"><defs><style>.cls-1,.cls-2{fill:none;stroke:#000;stroke-width:96px;}.cls-2{stroke-miterlimit:10;}</style></defs><path class="cls-2" d="M750.3,1329.8l159.4,891.7"/><path class="cls-2" d="M973.2,2328.4s288.9,297.2,754.1,74.3"/><path class="cls-2" d="M2055.1,1436.7l-268.2,891.7"/><path class="cls-2" d="M909.7,1329.8s409.4,314.2,973.1,156.4"/><path class="cls-2" d="M1227.1,1329.8s-322.8-292.7-405.3-796.3"/><path class="cls-2" d="M1396.8,1329.8s482.7-391.3,575.6-718.4"/><path class="cls-2" d="M1684.5,1322s442.8-20.1,571.8-310.8"/><path class="cls-2" d="M1317.1,1192.9s-260.3-368.6-5.2-562.4"/><path class="cls-1" d="M1610,1905.7c272.4-252,208.2,239.3-83.5,226-232.4-177.7,34.7-595.1,83.5-226Z"/><path class="cls-1" d="M1145.4,1833c179.2-325,272.9,161.6-8.1,240.8-276.6-95.5-154.4-575.8,8.1-240.8Z"/><path class="cls-2" d="M1400.3,432.3s-177.4-121.1-169.7,15.8c7.7,136.9,150.8,88.4,150.8,88.4"/><path class="cls-2" d="M1422.6,573.4s-125.4,131.3,4.9,154.1c135,23.7,99.3-135.1,99.3-135.1"/><path class="cls-2" d="M1566.1,436.7s97.2-155.7-39.9-155.9c-106.4-.2-87.8,132.3-87.8,132.3"/><path class="cls-2" d="M1554,585.3s136.9,85.5,151.1-59c10.4-105.9-123.8-59.6-123.8-59.6"/><ellipse class="cls-2" cx="1479.9" cy="497.6" rx="74.7" ry="83.1" transform="translate(266.1 1479.7) rotate(-57.6)"/></svg>