<?xml version="1.0" encoding="UTF-8"?><svg id="Layer_8" xmlns="http://www.w3.org/2000/svg" viewBox="0 0 2834.6 2834.6"><defs><style>.cls-1{fill:none;stroke:#272525;stroke-miterlimit:10;stroke-width:96px;}</style></defs><path class="cls-1" d="M1006.6,1297.8s-123.7,122.6,0,246.3"/><path class="cls-1" d="M1022.8,1604.6s-84.2,83.5-44.2,182.1c14.9,36.9,45.1,65.5,81.4,81.7,100.6,45,492.6,66.9,435-158.2"/><path class="cls-1" d="M1450.3,960.6c-165.2-119.3-335.6-39.6-407.9,5.5-35.5,22.1-64,54.4-79.2,93.3-18.3,46.9-22.4,112.3,43.3,178"/><path class="cls-1" d="M1367.4,1041.9c-14.5,4.8-356.6,128.8-245.5,297.8,76.4,116.2,165.9,42.2,214.4-15.4,37.7-44.8,83.1-82.5,135.4-108.9,63.9-32.2,120.3-24.3,171.7-15.8"/><path class="cls-1" d="M1643.5,1297.8s-212.9,280.9,181,387.1"/><path class="cls-1" d="M1552.6,960.6s503.8-162.8,474.9,227"/><path class="cls-1" d="M1080.9,1544.1c19.3,12.9,275.3,143.3,323.6,0,0,0,31.4-105.7,0-143"/><line class="cls-1" x1="2123.7" y1="1129.5" x2="2475.4" y2="1129.5"/><line class="cls-1" x1="2138.5" y1="1710.2" x2="2475.4" y2="1712.5"/><path class="cls-1" d="M2027.8,1710.2s52.8,328.6-441.7,124.5"/><polyline class="cls-1" points="807.3 1072.8 523.7 958.5 665.5 1223.8 423.6 1336.7 665.5 1444.6 367 1796.9 759.7 1695"/></svg>